<svg width="35" height="35" viewBox="0 0 35 35" fill="none" xmlns="http://www.w3.org/2000/svg">
<path d="M32.6409 0.000999451H1.90687C0.854449 0.000999451 0 0.853756 0 1.9079V32.6424C0 33.6965 0.854449 34.5504 1.90687 34.5504H18.4531V21.1709H13.9511V15.9559H18.4531V12.1103C18.4531 7.6485 21.1775 5.21766 25.1585 5.21766C27.067 5.21766 28.7037 5.36045 29.181 5.42246V10.0862L26.4196 10.0873C24.2551 10.0873 23.8375 11.1164 23.8375 12.6257V15.9542H29.0018L28.3265 21.1686H23.837V34.5487H32.6403C33.6938 34.5487 34.5489 33.6937 34.5489 32.6424V1.90676C34.5483 0.853756 33.6944 0.000999451 32.6409 0.000999451Z" fill="white"/>
</svg>
