<svg width="35" height="35" viewBox="0 0 35 35" fill="none" xmlns="http://www.w3.org/2000/svg">
<g clip-path="url(#clip0)">
<path d="M29.4876 5.06198C22.7384 -1.68745 11.813 -1.68853 5.06262 5.06198C-1.68687 11.8114 -1.68788 22.7366 5.06262 29.4871C11.8119 36.2365 22.7373 36.2375 29.4876 29.4871C36.2371 22.7376 36.2381 11.8124 29.4876 5.06198ZM28.7658 27.0251C27.9588 26.3035 27.0957 25.6649 26.1858 25.1146C26.7872 23.0373 27.1435 20.7513 27.2277 18.3751H32.3054C32.0758 21.578 30.8452 24.5826 28.7658 27.0251ZM2.24478 18.3751H7.32252C7.40674 20.7513 7.76301 23.0373 8.36438 25.1146C7.45454 25.6649 6.59136 26.3035 5.78441 27.0251C3.70501 24.5826 2.47443 21.578 2.24478 18.3751ZM5.78448 7.52395C6.59143 8.24554 7.45461 8.88412 8.36445 9.43445C7.76308 11.5118 7.4068 13.7977 7.32259 16.1739H2.24478C2.47443 12.9711 3.70501 9.96651 5.78448 7.52395ZM16.1745 9.66194C14.3795 9.53357 12.6488 9.09146 11.0443 8.36212C11.9774 5.95914 13.6977 3.07704 16.1745 2.3628V9.66194ZM16.1745 11.8673V16.174H9.52471C9.6009 14.1639 9.8857 12.2337 10.3594 10.4676C12.1828 11.2647 14.1438 11.7407 16.1745 11.8673ZM16.1745 18.3751V22.6818C14.1438 22.8084 12.1828 23.2844 10.3594 24.0815C9.8857 22.3154 9.6009 20.3852 9.52471 18.3751H16.1745ZM16.1745 24.8872V32.1862C13.6979 31.472 11.9776 28.5902 11.0443 26.187C12.6488 25.4576 14.3795 25.0155 16.1745 24.8872ZM18.3757 24.8872C20.1707 25.0155 21.9015 25.4576 23.506 26.187C22.5728 28.59 20.8525 31.472 18.3757 32.1862V24.8872ZM18.3757 22.6818V18.3751H25.0256C24.9494 20.3852 24.6646 22.3154 24.1909 24.0815C22.3675 23.2844 20.4065 22.8084 18.3757 22.6818ZM18.3757 16.174V11.8673C20.4065 11.7407 22.3675 11.2647 24.1909 10.4676C24.6646 12.2337 24.9494 14.1639 25.0256 16.174H18.3757ZM18.3757 9.66194V2.36287C20.8525 3.0771 22.5728 5.95921 23.506 8.36218C21.9015 9.09146 20.1707 9.53357 18.3757 9.66194ZM23.3194 3.4617C24.7282 4.07864 26.0426 4.91519 27.2209 5.95314C26.66 6.44764 26.0682 6.89602 25.4503 7.297C24.9015 5.93824 24.2005 4.61778 23.3194 3.4617ZM9.09993 7.297C8.48197 6.89602 7.89025 6.44764 7.32933 5.95314C8.50759 4.91519 9.82199 4.07864 11.2308 3.4617C10.3497 4.61791 9.6487 5.93837 9.09993 7.297ZM9.1 27.2521C9.6487 28.6108 10.3499 29.9313 11.2309 31.0874C9.82205 30.4705 8.50766 29.6339 7.3294 28.596C7.89025 28.1015 8.48204 27.6531 9.1 27.2521ZM25.4503 27.2521C26.0682 27.6531 26.66 28.1015 27.2209 28.5959C26.0426 29.6338 24.7282 30.4704 23.3194 31.0873C24.2004 29.9314 24.9015 28.6109 25.4503 27.2521ZM27.2277 16.174C27.1435 13.7978 26.7873 11.5118 26.1859 9.43452C27.0957 8.88419 27.9588 8.2456 28.7659 7.52402C30.8453 9.9665 32.0758 12.9711 32.3055 16.174H27.2277Z" fill="white"/>
</g>
<defs>
<clipPath id="clip0">
<rect width="34.55" height="34.55" fill="white"/>
</clipPath>
</defs>
</svg>
