<svg width="35" height="31" viewBox="0 0 35 31" fill="none" xmlns="http://www.w3.org/2000/svg">
<path d="M29.33 17.339C27.004 16.794 24.03 15.37 22.953 13.602C22.35 12.618 22.287 11.508 22.774 10.56C22.801 10.509 22.848 10.432 22.883 10.372C22.855 10.163 22.904 9.886 23.055 9.525C23.066 9.501 23.067 9.498 23.075 9.481H11.122C11.128 9.495 11.128 9.495 11.136 9.513C11.136 9.513 11.137 9.514 11.137 9.515C11.405 9.933 11.639 10.307 11.764 10.548C12.259 11.509 12.195 12.618 11.594 13.603C10.514 15.373 7.54099 16.796 5.21299 17.341L4.56999 28.124C4.49999 29.307 5.27499 30.273 6.29299 30.273H28.251C29.269 30.273 30.043 29.306 29.972 28.124L29.33 17.339ZM13.683 24.765H11.621C11.241 24.765 10.933 24.456 10.933 24.077C10.933 23.698 11.241 23.389 11.621 23.389H13.683C14.062 23.389 14.371 23.698 14.371 24.077C14.371 24.456 14.062 24.765 13.683 24.765ZM13.683 22.143H11.621C11.241 22.143 10.933 21.835 10.933 21.456C10.933 21.074 11.241 20.768 11.621 20.768H13.683C14.062 20.768 14.371 21.074 14.371 21.456C14.371 21.835 14.062 22.143 13.683 22.143ZM13.683 19.521H11.621C11.241 19.521 10.933 19.213 10.933 18.833C10.933 18.454 11.241 18.145 11.621 18.145H13.683C14.062 18.145 14.371 18.454 14.371 18.833C14.371 19.212 14.062 19.521 13.683 19.521ZM18.304 24.765H16.243C15.863 24.765 15.555 24.456 15.555 24.077C15.555 23.698 15.864 23.389 16.243 23.389H18.305C18.684 23.389 18.993 23.698 18.993 24.077C18.991 24.456 18.683 24.765 18.304 24.765ZM18.304 22.143H16.243C15.863 22.143 15.555 21.835 15.555 21.456C15.555 21.074 15.864 20.768 16.243 20.768H18.305C18.684 20.768 18.993 21.074 18.993 21.456C18.991 21.835 18.683 22.143 18.304 22.143ZM18.304 19.521H16.243C15.863 19.521 15.555 19.213 15.555 18.833C15.555 18.454 15.864 18.145 16.243 18.145H18.305C18.684 18.145 18.993 18.454 18.993 18.833C18.991 19.212 18.683 19.521 18.304 19.521ZM22.924 24.765H20.862C20.483 24.765 20.175 24.456 20.175 24.077C20.175 23.698 20.483 23.389 20.862 23.389H22.924C23.305 23.389 23.612 23.698 23.612 24.077C23.612 24.456 23.306 24.765 22.924 24.765ZM22.924 22.143H20.862C20.483 22.143 20.175 21.835 20.175 21.456C20.175 21.074 20.483 20.768 20.862 20.768H22.924C23.305 20.768 23.612 21.074 23.612 21.456C23.612 21.835 23.306 22.143 22.924 22.143ZM22.924 19.521H20.862C20.483 19.521 20.175 19.213 20.175 18.833C20.175 18.454 20.483 18.145 20.862 18.145H22.924C23.305 18.145 23.612 18.454 23.612 18.833C23.612 19.212 23.306 19.521 22.924 19.521ZM34.372 11.114C34.329 11.33 34.327 11.555 34.242 11.76C33.745 12.962 32.813 13.957 32.127 15.065C31.242 16.479 23.721 13.431 24.69 11.544C25.055 10.846 26.479 8.918 26.586 8.143C26.684 7.451 25.768 6.91 24.922 6.841C22.69 6.66 19.839 6.824 17.47 6.839V6.841C17.407 6.841 17.337 6.84 17.272 6.84C17.208 6.84 17.138 6.841 17.075 6.841V6.839C14.706 6.824 11.855 6.661 9.62299 6.841C8.77699 6.91 7.86099 7.451 7.95799 8.143C8.06599 8.918 9.48899 10.846 9.85399 11.544C10.825 13.431 3.30399 16.479 2.41899 15.065C1.73099 13.957 0.800986 12.962 0.302986 11.76C0.218986 11.555 0.216986 11.33 0.173986 11.114C-0.930014 6.184 3.32199 1.154 9.72499 0.637999C12.17 0.439999 14.621 0.327999 17.075 0.283999V0.271999C17.141 0.272999 17.206 0.276999 17.272 0.277999C17.337 0.276999 17.403 0.272999 17.47 0.271999V0.283999C19.922 0.327999 22.373 0.439999 24.82 0.637999C31.222 1.153 35.474 6.185 34.372 11.114Z" fill="white"/>
</svg>
